<?xml version="1.0" standalone="no"?>
<!DOCTYPE svg PUBLIC "-//W3C//DTD SVG 20010904//EN"
 "http://www.w3.org/TR/2001/REC-SVG-20010904/DTD/svg10.dtd">
<svg version="1.0" xmlns="http://www.w3.org/2000/svg"
 width="1280.000000pt" height="1280.000000pt" viewBox="0 0 1280.000000 1280.000000"
 preserveAspectRatio="xMidYMid meet">
<metadata>
Created by potrace 1.16, written by Peter Selinger 2001-2019
</metadata>
<g transform="translate(0.000000,1280.000000) scale(0.100000,-0.100000)"
fill="#000000" stroke="none">
<path d="M6298 10656 c-47 -83 -151 -263 -230 -401 -80 -137 -207 -358 -283
-490 -76 -132 -194 -337 -263 -455 -183 -317 -335 -580 -462 -800 -61 -107
-129 -224 -150 -260 -21 -36 -103 -177 -182 -315 -334 -579 -472 -818 -658
-1140 -108 -187 -268 -464 -355 -615 -87 -151 -197 -342 -245 -425 -48 -82
-213 -368 -367 -635 -154 -267 -306 -530 -338 -585 -32 -55 -100 -172 -150
-260 -51 -88 -175 -304 -277 -480 -306 -530 -417 -723 -508 -880 -196 -339
-287 -497 -358 -620 -104 -178 -162 -282 -162 -287 0 -5 5463 2 5468 7 3 3
-497 840 -530 887 l-19 28 -1670 0 c-1157 0 -1669 3 -1669 10 0 6 51 100 114
208 62 108 255 442 428 742 340 589 631 1092 791 1370 55 96 121 211 147 255
26 44 109 188 185 320 76 132 144 246 151 254 14 15 24 1 103 -139 24 -41 104
-181 179 -310 74 -129 202 -350 282 -490 81 -140 179 -309 217 -375 39 -66
131 -226 205 -355 134 -232 241 -418 393 -680 129 -223 609 -1032 827 -1395
l205 -340 517 -3 c284 -1 516 1 516 6 0 7 -79 147 -215 382 -118 203 -206 355
-260 450 -26 47 -54 92 -60 100 -7 8 -38 59 -69 113 -31 53 -81 141 -112 195
-31 53 -107 185 -169 292 -62 107 -179 310 -260 450 -81 140 -181 313 -222
384 -41 71 -75 136 -76 145 -1 19 111 221 123 221 5 0 23 -26 41 -57 18 -32
137 -238 264 -458 127 -220 303 -524 390 -675 87 -151 222 -385 300 -520 78
-135 153 -265 167 -290 13 -25 82 -144 152 -265 70 -121 155 -267 188 -325 34
-58 67 -114 74 -126 l13 -21 1525 0 c839 0 1526 2 1526 4 0 3 -11 23 -24 46
-180 312 -508 878 -541 932 -23 39 -112 192 -197 340 -86 149 -198 342 -249
430 -51 88 -109 189 -129 225 -20 36 -77 135 -127 220 -192 332 -248 428 -301
520 -30 52 -98 169 -150 260 -118 205 -224 388 -424 735 -86 149 -207 358
-269 465 -62 107 -180 312 -262 455 -83 143 -179 310 -214 370 -35 61 -67 111
-71 112 -4 2 -36 -48 -71 -110 -35 -61 -88 -152 -117 -202 -217 -372 -336
-582 -336 -595 -1 -14 55 -112 297 -530 43 -74 112 -193 153 -265 79 -137 130
-226 254 -440 42 -71 134 -231 205 -355 72 -124 155 -269 186 -323 109 -186
165 -283 262 -452 54 -93 137 -237 185 -320 280 -486 330 -574 330 -584 0 -17
-890 -16 -912 2 -9 6 -60 89 -113 182 -54 94 -164 285 -245 425 -81 140 -298
516 -482 835 -185 319 -428 741 -542 937 -113 197 -206 362 -206 366 0 9 164
296 495 867 32 55 101 174 153 265 52 91 120 208 150 260 179 308 191 332 180
354 -6 12 -52 93 -103 181 -51 88 -134 232 -185 320 -191 332 -214 371 -245
420 -18 28 -69 115 -115 195 -83 144 -98 172 -285 495 -93 162 -132 229 -338
585 -49 85 -113 198 -142 250 -48 88 -135 239 -316 553 -39 67 -103 177 -141
245 -39 67 -73 124 -77 126 -3 2 -45 -65 -93 -148z m103 -1714 c9 -15 84 -144
166 -287 233 -402 400 -691 457 -790 133 -228 255 -441 260 -455 4 -9 -53
-117 -135 -260 -78 -135 -149 -258 -159 -275 -9 -16 -70 -122 -135 -235 -171
-295 -278 -481 -390 -675 -53 -93 -113 -196 -132 -228 -19 -31 -47 -79 -61
-105 -78 -140 -98 -172 -107 -172 -5 0 -68 100 -138 223 -70 122 -155 269
-189 327 -62 108 -267 463 -400 695 -41 72 -97 169 -125 216 -27 48 -52 93
-56 101 -6 18 -5 21 95 193 369 639 948 1642 977 1693 19 34 40 62 45 62 6 0
18 -12 27 -28z"/>
</g>
</svg>
